<svg width="224" height="43" viewBox="0 0 224 43" fill="none" xmlns="http://www.w3.org/2000/svg">
<path fill-rule="evenodd" clip-rule="evenodd" d="M32.357 28.1929C35.356 29.2228 36.7443 32.7431 34.5152 34.9977C30.8588 38.6958 25.7819 40.9873 20.1696 40.9873C9.03024 40.9873 0 31.96 0 20.8242C0 9.68845 9.03024 0.661133 20.1696 0.661133C25.7351 0.661133 30.774 2.91454 34.4234 6.55847C36.6784 8.81017 35.2914 12.354 32.277 13.3892C30.1248 14.1283 27.8015 13.2563 25.8943 12.0152C24.2474 10.9434 22.2812 10.3207 20.1696 10.3207C14.3668 10.3207 9.66265 15.0233 9.66265 20.8242C9.66265 26.6252 14.3668 31.3278 20.1696 31.3278C22.3048 31.3278 24.2912 30.6911 25.9493 29.5972C27.8586 28.3376 30.1935 27.45 32.357 28.1929Z" fill="#FFF100"/>
<path fill-rule="evenodd" clip-rule="evenodd" d="M94.3912 33.07C95.9753 35.1826 95.559 38.2254 93.1242 39.2854C90.6106 40.3797 87.8311 40.9873 84.9081 40.9873C73.6409 40.9873 64.507 31.96 64.507 20.8242C64.507 9.68845 73.6409 0.661133 84.9081 0.661133C87.8707 0.661133 90.6858 1.28526 93.2262 2.40773C95.6751 3.48981 96.061 6.5654 94.4318 8.67167C92.7847 10.8011 89.6649 11.0513 87.0056 10.5252C86.3275 10.391 85.6261 10.3207 84.9081 10.3207C79.0387 10.3207 74.2805 15.0233 74.2805 20.8242C74.2805 26.6252 79.0387 31.3278 84.9081 31.3278C85.6032 31.3278 86.2828 31.2618 86.9406 31.1359C89.6198 30.6231 92.7664 30.9031 94.3912 33.07Z" fill="#FFF100"/>
<path fill-rule="evenodd" clip-rule="evenodd" d="M180.124 28.8541C183.18 29.8839 184.594 33.4043 182.323 35.6588C178.598 39.3569 173.425 41.6484 167.707 41.6484C156.357 41.6484 147.156 32.6211 147.156 21.4853C147.156 10.3496 156.357 1.32227 167.707 1.32227C173.377 1.32227 178.511 3.57568 182.229 7.2196C184.527 9.4713 183.114 13.0152 180.043 14.0503C177.85 14.7894 175.483 13.9174 173.539 12.6763C171.861 11.6045 169.858 10.9818 167.707 10.9818C161.794 10.9818 157.001 15.6844 157.001 21.4853C157.001 27.2863 161.794 31.9889 167.707 31.9889C169.882 31.9889 171.906 31.3522 173.595 30.2584C175.541 28.9988 177.92 28.1111 180.124 28.8541Z" fill="#01A6E8"/>
<path fill-rule="evenodd" clip-rule="evenodd" d="M203.6 40.3882C214.037 40.3882 222.499 31.9251 222.499 21.4853C222.499 11.0456 214.037 2.58246 203.6 2.58246C193.163 2.58246 184.702 11.0456 184.702 21.4853C184.702 31.9251 193.163 40.3882 203.6 40.3882ZM215.361 21.4853C215.361 27.9823 210.096 33.2491 203.6 33.2491C197.105 33.2491 191.839 27.9823 191.839 21.4853C191.839 14.9884 197.105 9.7216 203.6 9.7216C210.096 9.7216 215.361 14.9884 215.361 21.4853ZM223.758 21.4853C223.758 32.6211 214.733 41.6484 203.6 41.6484C192.467 41.6484 183.442 32.6211 183.442 21.4853C183.442 10.3496 192.467 1.32227 203.6 1.32227C214.733 1.32227 223.758 10.3496 223.758 21.4853ZM214.101 21.4853C214.101 27.2863 209.4 31.9889 203.6 31.9889C197.8 31.9889 193.099 27.2863 193.099 21.4853C193.099 15.6844 197.8 10.9818 203.6 10.9818C209.4 10.9818 214.101 15.6844 214.101 21.4853Z" fill="#FF3C82"/>
<path d="M38.301 5.32385C38.301 2.7487 40.4069 0.661133 43.0046 0.661133C45.6024 0.661133 47.7083 2.7487 47.7083 5.32385V36.3246C47.7083 38.8997 45.6024 40.9873 43.0046 40.9873C40.4069 40.9873 38.301 38.8997 38.301 36.3246V5.32385Z" fill="#FFF100"/>
<path d="M73.5658 25.1211C71.1605 25.1211 69.2106 23.1972 69.2106 20.824C69.2106 18.4508 71.1605 16.527 73.5658 16.527H85.0138C87.4191 16.527 89.369 18.4508 89.369 20.824C89.369 23.1972 87.4191 25.1211 85.0138 25.1211H73.5658Z" fill="#FFF100"/>
<path d="M107.856 8.13002C106.895 5.5314 108.257 2.65807 110.898 1.71225C113.539 0.766428 116.46 2.10629 117.421 4.7049L127.865 32.9362C128.827 35.5348 127.465 38.4081 124.823 39.354C122.182 40.2998 119.262 38.9599 118.3 36.3613L107.856 8.13002Z" fill="#FFF100"/>
<path d="M116.159 8.13002C117.121 5.5314 115.759 2.65807 113.118 1.71225C110.476 0.766428 107.556 2.10629 106.594 4.7049L96.1502 32.9362C95.1888 35.5348 96.5507 38.4081 99.192 39.354C101.833 40.2998 104.754 38.9599 105.715 36.3613L116.159 8.13002Z" fill="#FFF100"/>
<path d="M46.8867 23.7973C45.5867 21.582 46.3582 18.7493 48.6098 17.4703C50.8615 16.1913 53.7407 16.9503 55.0407 19.1656L63.5563 33.6765C64.8563 35.8918 64.0848 38.7245 61.8331 40.0034C59.5814 41.2824 56.7022 40.5234 55.4022 38.3081L46.8867 23.7973Z" fill="#FFF100"/>
<path fill-rule="evenodd" clip-rule="evenodd" d="M62.4911 12.8912C62.4911 19.6457 56.8042 25.1213 49.789 25.1213C49.7024 25.1213 49.616 25.1204 49.5298 25.1188L41.6607 16.1202C41.7463 16.1265 49.7018 16.1359 49.789 16.1359C51.6502 16.1359 53.1589 14.6832 53.1589 12.8912C53.1589 11.0992 51.6502 9.64651 49.789 9.64651C49.6138 9.64651 42.2647 9.6842 42.0967 9.70903C42.0967 7.52493 42.0967 4.65462 42.0967 0.661133L49.789 0.661165C56.8042 0.661165 62.4911 6.13675 62.4911 12.8912Z" fill="#FFF100"/>
</svg>
