<svg width="333" height="90" viewBox="0 0 333 90" fill="none" xmlns="http://www.w3.org/2000/svg">
<path d="M1.88874 89.7177C1.78847 89.8163 1.66542 89.8656 1.51957 89.8656C1.37373 89.8656 1.25067 89.8163 1.1504 89.7177C1.05013 89.6101 1 89.4847 1 89.3413V80.6029C1 80.4505 1.05013 80.3206 1.1504 80.213C1.25979 80.1055 1.39196 80.0517 1.54692 80.0517C1.92064 80.0517 2.19866 80.213 2.38097 80.5357L5.37534 85.9535C5.37534 85.9624 5.38445 85.9669 5.40268 85.9669C5.4118 85.9669 5.41636 85.9624 5.41636 85.9535L8.41073 80.5491C8.58392 80.2175 8.86649 80.0517 9.25845 80.0517C9.41341 80.0517 9.54558 80.11 9.65497 80.2265C9.77346 80.334 9.83271 80.464 9.83271 80.6163V89.3278C9.83271 89.4712 9.77802 89.5967 9.66864 89.7042C9.56837 89.8118 9.44076 89.8656 9.2858 89.8656C9.13084 89.8656 8.99866 89.8118 8.88928 89.7042C8.78901 89.5967 8.73888 89.4712 8.73888 89.3278V81.8666C8.73888 81.8576 8.73432 81.8532 8.72521 81.8532C8.71609 81.8532 8.71153 81.8576 8.71153 81.8666L6.15469 86.5047C5.99062 86.8004 5.73995 86.9483 5.40268 86.9483C5.06542 86.9483 4.81475 86.8004 4.65067 86.5047L2.08016 81.8666C2.08016 81.8576 2.0756 81.8532 2.06649 81.8532C2.05737 81.8532 2.05282 81.8576 2.05282 81.8666V89.3413C2.05282 89.4847 1.99812 89.6101 1.88874 89.7177Z" fill="#FF3C82"/>
<path d="M20.8586 81.0331L19.1906 86.0341C19.1814 86.061 19.186 86.0879 19.2042 86.1148C19.2225 86.1327 19.2452 86.1417 19.2726 86.1417H22.4857C22.5131 86.1417 22.5313 86.1327 22.5404 86.1148C22.5586 86.0879 22.5678 86.061 22.5678 86.0341L20.8997 81.0331C20.8997 81.0241 20.8951 81.0196 20.886 81.0196C20.8678 81.0196 20.8586 81.0241 20.8586 81.0331ZM17.3447 89.8656C17.208 89.8656 17.0986 89.8118 17.0166 89.7042C16.9345 89.5877 16.9163 89.4667 16.9619 89.3413L20.0793 80.6163C20.1431 80.4461 20.2479 80.3116 20.3938 80.213C20.5487 80.1055 20.7174 80.0517 20.8997 80.0517C21.082 80.0517 21.246 80.1055 21.3919 80.213C21.5469 80.3116 21.6562 80.4461 21.72 80.6163L24.8238 89.3278C24.8694 89.4623 24.8511 89.5877 24.7691 89.7042C24.6871 89.8118 24.5777 89.8656 24.441 89.8656C24.2586 89.8656 24.0946 89.8163 23.9487 89.7177C23.812 89.6101 23.7163 89.4757 23.6616 89.3144L22.9369 87.1096C22.9096 87.0379 22.8549 87.0021 22.7729 87.0021H18.9855C18.9125 87.0021 18.8624 87.0379 18.8351 87.1096L18.083 89.3413C18.0284 89.5026 17.9326 89.6325 17.7959 89.7311C17.6683 89.8208 17.5179 89.8656 17.3447 89.8656Z" fill="#FF3C82"/>
<path d="M32.9274 81.0331V84.6091C32.9274 84.6898 32.9684 84.7301 33.0504 84.7301H34.0212C35.1059 84.7301 35.9035 84.5598 36.414 84.2192C36.9244 83.8697 37.1796 83.3544 37.1796 82.6732C37.1796 81.4185 36.218 80.7911 34.2947 80.7911C33.8845 80.7911 33.4697 80.827 33.0504 80.8987C32.9684 80.9166 32.9274 80.9614 32.9274 81.0331ZM32.7633 89.7042C32.663 89.8118 32.5354 89.8656 32.3804 89.8656C32.2255 89.8656 32.0933 89.8118 31.9839 89.7042C31.8837 89.5967 31.8335 89.4712 31.8335 89.3278V80.8852C31.8335 80.6612 31.9064 80.4685 32.0523 80.3071C32.1981 80.1368 32.3804 80.0383 32.5992 80.0114C33.137 79.9486 33.7341 79.9173 34.3904 79.9173C35.6665 79.9173 36.6282 80.1503 37.2754 80.6163C37.9317 81.0734 38.2598 81.7277 38.2598 82.5791C38.2598 83.2603 38.0729 83.8294 37.6992 84.2865C37.3346 84.7346 36.8105 85.0438 36.1268 85.2141C36.1177 85.2141 36.1132 85.223 36.1132 85.241C36.1132 85.2499 36.1177 85.2544 36.1268 85.2544C36.5188 85.4785 36.9199 86.061 37.33 87.0021L38.3145 89.3547C38.3692 89.4712 38.3555 89.5877 38.2735 89.7042C38.2006 89.8118 38.0957 89.8656 37.959 89.8656C37.7858 89.8656 37.6263 89.8163 37.4804 89.7177C37.3437 89.6191 37.2435 89.4936 37.1796 89.3413L36.2225 87.029C35.9491 86.3837 35.6893 85.9848 35.4432 85.8325C35.2062 85.6711 34.7322 85.5905 34.0212 85.5905H33.0504C32.9684 85.5905 32.9274 85.6263 32.9274 85.698V89.3278C32.9274 89.4712 32.8727 89.5967 32.7633 89.7042Z" fill="#FF3C82"/>
<path d="M49.1938 90C47.8812 90 46.8283 89.5608 46.0353 88.6825C45.2423 87.7952 44.8458 86.5539 44.8458 84.9586C44.8458 83.3723 45.2241 82.1355 45.9806 81.2482C46.7463 80.3609 47.8037 79.9173 49.1527 79.9173C49.8637 79.9173 50.4972 79.9845 51.0533 80.1189C51.19 80.1548 51.2994 80.231 51.3814 80.3475C51.4726 80.464 51.5182 80.5939 51.5182 80.7373C51.5182 80.8538 51.468 80.9479 51.3678 81.0196C51.2766 81.0824 51.1718 81.0958 51.0533 81.06C50.5155 80.8987 49.9139 80.818 49.2485 80.818C48.2184 80.818 47.4117 81.181 46.8284 81.9069C46.245 82.6329 45.9533 83.6501 45.9533 84.9586C45.9533 86.2582 46.2541 87.2754 46.8557 88.0103C47.4664 88.7363 48.2777 89.0993 49.2895 89.0993C49.964 89.0993 50.5747 89.0186 51.1217 88.8573C51.2401 88.8214 51.345 88.8394 51.4361 88.9111C51.5364 88.9738 51.5865 89.0634 51.5865 89.1799C51.5865 89.3233 51.541 89.4533 51.4498 89.5698C51.3678 89.6774 51.2584 89.7491 51.1217 89.7849C50.5109 89.9283 49.8683 90 49.1938 90Z" fill="#FF3C82"/>
<path d="M62.5424 81.0331L60.8743 86.0341C60.8652 86.061 60.8697 86.0879 60.888 86.1148C60.9062 86.1327 60.929 86.1417 60.9563 86.1417H64.1695C64.1968 86.1417 64.215 86.1327 64.2242 86.1148C64.2424 86.0879 64.2515 86.061 64.2515 86.0341L62.5834 81.0331C62.5834 81.0241 62.5789 81.0196 62.5697 81.0196C62.5515 81.0196 62.5424 81.0241 62.5424 81.0331ZM59.0285 89.8656C58.8917 89.8656 58.7823 89.8118 58.7003 89.7042C58.6183 89.5877 58.6 89.4667 58.6456 89.3413L61.763 80.6163C61.8268 80.4461 61.9317 80.3116 62.0775 80.213C62.2325 80.1055 62.4011 80.0517 62.5834 80.0517C62.7657 80.0517 62.9298 80.1055 63.0756 80.213C63.2306 80.3116 63.34 80.4461 63.4038 80.6163L66.5075 89.3278C66.5531 89.4623 66.5349 89.5877 66.4529 89.7042C66.3708 89.8118 66.2614 89.8656 66.1247 89.8656C65.9424 89.8656 65.7783 89.8163 65.6325 89.7177C65.4957 89.6101 65.4 89.4757 65.3453 89.3144L64.6207 87.1096C64.5933 87.0379 64.5386 87.0021 64.4566 87.0021H60.6692C60.5963 87.0021 60.5461 87.0379 60.5188 87.1096L59.7668 89.3413C59.7121 89.5026 59.6164 89.6325 59.4797 89.7311C59.352 89.8208 59.2016 89.8656 59.0285 89.8656Z" fill="#FF3C82"/>
<path d="M83.7656 81.0331V84.9855C83.7656 85.0572 83.8066 85.102 83.8886 85.12C84.3261 85.1827 84.8184 85.2141 85.3653 85.2141C86.2677 85.2141 86.9559 85.0214 87.4299 84.636C87.913 84.2506 88.1546 83.6994 88.1546 82.9824C88.1546 82.2654 87.9176 81.7232 87.4436 81.3557C86.9787 80.9793 86.2859 80.7911 85.3653 80.7911C84.8731 80.7911 84.3808 80.827 83.8886 80.8987C83.8066 80.9166 83.7656 80.9614 83.7656 81.0331ZM83.6015 89.7042C83.5012 89.8118 83.3736 89.8656 83.2186 89.8656C83.0637 89.8656 82.9315 89.8118 82.8221 89.7042C82.7218 89.5967 82.6717 89.4712 82.6717 89.3278V80.8852C82.6717 80.6701 82.7446 80.4819 82.8905 80.3206C83.0363 80.1503 83.2186 80.0517 83.4374 80.0248C84.1393 79.9531 84.8092 79.9173 85.4473 79.9173C86.687 79.9173 87.6259 80.1772 88.2639 80.697C88.9111 81.2079 89.2347 81.9428 89.2347 82.9018C89.2347 83.9414 88.9111 84.7301 88.2639 85.2678C87.6168 85.8056 86.6779 86.0745 85.4473 86.0745C84.9551 86.0745 84.4355 86.0521 83.8886 86.0072C83.8066 86.0072 83.7656 86.0386 83.7656 86.1013V89.3278C83.7656 89.4712 83.7109 89.5967 83.6015 89.7042Z" fill="#FF3C82"/>
<path d="M98.6048 81.0331L96.9366 86.0341C96.9275 86.061 96.9321 86.0879 96.9503 86.1148C96.9686 86.1327 96.9913 86.1417 97.0187 86.1417H100.232C100.259 86.1417 100.277 86.1327 100.287 86.1148C100.305 86.0879 100.314 86.061 100.314 86.0341L98.6458 81.0331C98.6458 81.0241 98.6412 81.0196 98.6321 81.0196C98.6139 81.0196 98.6048 81.0241 98.6048 81.0331ZM95.0908 89.8656C94.9541 89.8656 94.8447 89.8118 94.7626 89.7042C94.6806 89.5877 94.6624 89.4667 94.708 89.3413L97.8254 80.6163C97.8892 80.4461 97.994 80.3116 98.1399 80.213C98.2948 80.1055 98.4635 80.0517 98.6458 80.0517C98.8281 80.0517 98.9921 80.1055 99.138 80.213C99.293 80.3116 99.4023 80.4461 99.4661 80.6163L102.57 89.3278C102.615 89.4623 102.597 89.5877 102.515 89.7042C102.433 89.8118 102.324 89.8656 102.187 89.8656C102.005 89.8656 101.841 89.8163 101.695 89.7177C101.558 89.6101 101.462 89.4757 101.408 89.3144L100.683 87.1096C100.656 87.0379 100.601 87.0021 100.519 87.0021H96.7316C96.6586 87.0021 96.6085 87.0379 96.5811 87.1096L95.8291 89.3413C95.7744 89.5026 95.6787 89.6325 95.542 89.7311C95.4144 89.8208 95.264 89.8656 95.0908 89.8656Z" fill="#FF3C82"/>
<path d="M111.138 77.5646C111.403 77.1882 111.767 77 112.232 77C112.369 77 112.465 77.0627 112.519 77.1882C112.583 77.3137 112.569 77.4257 112.478 77.5243L111.343 78.8552C111.125 79.1151 110.842 79.2451 110.496 79.2451C110.386 79.2451 110.304 79.2003 110.25 79.1107C110.204 79.0121 110.213 78.918 110.277 78.8283L111.138 77.5646ZM110.988 89.7042C110.879 89.8118 110.742 89.8656 110.578 89.8656C110.414 89.8656 110.272 89.8118 110.154 89.7042C110.045 89.5877 109.99 89.4488 109.99 89.2875V80.6298C109.99 80.4685 110.045 80.334 110.154 80.2265C110.272 80.11 110.414 80.0517 110.578 80.0517C110.742 80.0517 110.879 80.11 110.988 80.2265C111.106 80.334 111.166 80.4685 111.166 80.6298V89.2875C111.166 89.4488 111.106 89.5877 110.988 89.7042Z" fill="#FF3C82"/>
<path d="M121.503 85.2544C119.616 84.627 118.673 83.6456 118.673 82.3102C118.673 81.5574 118.919 80.9704 119.411 80.5491C119.903 80.1279 120.591 79.9173 121.476 79.9173C122.296 79.9173 123.057 80.0383 123.759 80.2802C123.905 80.334 124.023 80.4281 124.114 80.5626C124.206 80.688 124.251 80.8314 124.251 80.9928C124.251 81.1093 124.201 81.1989 124.101 81.2616C124.001 81.3154 123.896 81.3199 123.786 81.2751C123.048 80.9524 122.305 80.7911 121.558 80.7911C121.011 80.7911 120.569 80.9166 120.231 81.1675C119.903 81.4185 119.739 81.7994 119.739 82.3102C119.739 83.1886 120.336 83.8249 121.53 84.2192C122.661 84.5867 123.454 85.0079 123.909 85.4829C124.365 85.9579 124.593 86.5674 124.593 87.3113C124.593 88.1896 124.324 88.8573 123.786 89.3144C123.249 89.7715 122.46 90 121.421 90C120.637 90 119.931 89.8611 119.302 89.5832C118.983 89.4398 118.823 89.1889 118.823 88.8304C118.823 88.7139 118.873 88.6287 118.973 88.575C119.074 88.5212 119.174 88.5212 119.274 88.575C119.894 88.9245 120.582 89.0993 121.339 89.0993C122.779 89.0993 123.499 88.5033 123.499 87.3113C123.499 86.8273 123.344 86.424 123.034 86.1013C122.724 85.7787 122.214 85.4964 121.503 85.2544Z" fill="#FF3C82"/>
<path d="M143.342 81.9069V88.0103C143.342 88.091 143.383 88.1403 143.465 88.1582C143.648 88.1941 143.866 88.212 144.122 88.212C145.042 88.212 145.721 87.9476 146.159 87.4188C146.606 86.89 146.829 86.0252 146.829 84.8242C146.829 83.7487 146.606 82.96 146.159 82.4581C145.712 81.9562 145.033 81.7053 144.122 81.7053C143.866 81.7053 143.648 81.7232 143.465 81.759C143.383 81.777 143.342 81.8263 143.342 81.9069ZM141.838 89.8925C141.619 89.8745 141.437 89.7849 141.291 89.6236C141.145 89.4533 141.073 89.2561 141.073 89.0321V80.8852C141.073 80.6612 141.145 80.4685 141.291 80.3071C141.437 80.1368 141.619 80.0427 141.838 80.0248C142.549 79.9531 143.251 79.9173 143.944 79.9173C145.575 79.9173 146.833 80.343 147.718 81.1944C148.602 82.0458 149.044 83.2558 149.044 84.8242C149.044 86.5271 148.602 87.8176 147.718 88.696C146.833 89.5653 145.575 90 143.944 90C143.251 90 142.549 89.9641 141.838 89.8925Z" fill="#FF3C82"/>
<path d="M156.748 89.8656C156.538 89.8656 156.356 89.7894 156.201 89.637C156.055 89.4847 155.982 89.3054 155.982 89.0993V80.818C155.982 80.6119 156.055 80.4326 156.201 80.2802C156.356 80.1279 156.538 80.0517 156.748 80.0517H161.588C161.797 80.0517 161.975 80.1279 162.121 80.2802C162.276 80.4326 162.353 80.6119 162.353 80.818V81.1272C162.353 81.3333 162.276 81.5126 162.121 81.6649C161.975 81.8173 161.797 81.8935 161.588 81.8935H158.416C158.343 81.8935 158.306 81.9293 158.306 82.001V83.7756C158.306 83.8563 158.343 83.8966 158.416 83.8966H161.314C161.524 83.8966 161.702 83.9728 161.848 84.1251C162.003 84.2775 162.08 84.4567 162.08 84.6629V84.8645C162.08 85.0707 162.003 85.2499 161.848 85.4023C161.702 85.5546 161.524 85.6308 161.314 85.6308H158.416C158.343 85.6308 158.306 85.6667 158.306 85.7384V87.9162C158.306 87.9879 158.343 88.0238 158.416 88.0238H161.588C161.797 88.0238 161.975 88.1 162.121 88.2523C162.276 88.4047 162.353 88.5839 162.353 88.7901V89.0993C162.353 89.3054 162.276 89.4847 162.121 89.637C161.975 89.7894 161.797 89.8656 161.588 89.8656H156.748Z" fill="#FF3C82"/>
<path d="M173.834 90C172.339 90 171.163 89.5653 170.306 88.696C169.449 87.8266 169.021 86.5808 169.021 84.9586C169.021 83.3633 169.436 82.1265 170.265 81.2482C171.095 80.3609 172.252 79.9173 173.738 79.9173C174.449 79.9173 175.069 79.9666 175.598 80.0651C175.816 80.101 175.994 80.2085 176.131 80.3878C176.268 80.567 176.336 80.7687 176.336 80.9928V81.423C176.336 81.6112 176.258 81.759 176.103 81.8666C175.948 81.9741 175.78 82.0055 175.598 81.9607C175.078 81.8263 174.549 81.759 174.011 81.759C173.191 81.759 172.548 82.0324 172.084 82.5791C171.628 83.1258 171.4 83.919 171.4 84.9586C171.4 85.9804 171.646 86.7735 172.138 87.3382C172.631 87.9028 173.287 88.1851 174.107 88.1851C174.654 88.1851 175.187 88.1179 175.707 87.9835C175.889 87.9386 176.058 87.97 176.213 88.0776C176.377 88.1851 176.459 88.333 176.459 88.5212V88.9245C176.459 89.1486 176.386 89.3502 176.24 89.5295C176.103 89.7087 175.926 89.8163 175.707 89.8521C175.169 89.9507 174.545 90 173.834 90Z" fill="#FF3C82"/>
<path d="M184.71 89.8656C184.501 89.8656 184.318 89.7894 184.163 89.637C184.018 89.4847 183.945 89.3054 183.945 89.0993V80.818C183.945 80.6119 184.018 80.4326 184.163 80.2802C184.318 80.1279 184.501 80.0517 184.71 80.0517H189.551C189.76 80.0517 189.938 80.1279 190.084 80.2802C190.239 80.4326 190.316 80.6119 190.316 80.818V81.1272C190.316 81.3333 190.239 81.5126 190.084 81.6649C189.938 81.8173 189.76 81.8935 189.551 81.8935H186.378C186.306 81.8935 186.269 81.9293 186.269 82.001V83.7756C186.269 83.8563 186.306 83.8966 186.378 83.8966H189.277C189.487 83.8966 189.664 83.9728 189.81 84.1251C189.965 84.2775 190.043 84.4567 190.043 84.6629V84.8645C190.043 85.0707 189.965 85.2499 189.81 85.4023C189.664 85.5546 189.487 85.6308 189.277 85.6308H186.378C186.306 85.6308 186.269 85.6667 186.269 85.7384V87.9162C186.269 87.9879 186.306 88.0238 186.378 88.0238H189.551C189.76 88.0238 189.938 88.1 190.084 88.2523C190.239 88.4047 190.316 88.5839 190.316 88.7901V89.0993C190.316 89.3054 190.239 89.4847 190.084 89.637C189.938 89.7894 189.76 89.8656 189.551 89.8656H184.71Z" fill="#FF3C82"/>
<path d="M198.512 89.8656C198.302 89.8656 198.12 89.7894 197.965 89.637C197.81 89.4847 197.732 89.3054 197.732 89.0993V80.818C197.732 80.6119 197.81 80.4326 197.965 80.2802C198.12 80.1279 198.302 80.0517 198.512 80.0517H199.182C199.701 80.0517 200.08 80.2758 200.317 80.7239L203.188 86.061C203.188 86.07 203.192 86.0745 203.202 86.0745C203.211 86.0745 203.215 86.07 203.215 86.061V80.818C203.215 80.6119 203.293 80.4326 203.448 80.2802C203.603 80.1279 203.785 80.0517 203.995 80.0517H204.665C204.874 80.0517 205.057 80.1279 205.212 80.2802C205.366 80.4326 205.444 80.6119 205.444 80.818V89.0993C205.444 89.3054 205.366 89.4847 205.212 89.637C205.057 89.7894 204.874 89.8656 204.665 89.8656H203.995C203.475 89.8656 203.097 89.6415 202.86 89.1934L199.988 83.8563C199.988 83.8473 199.984 83.8428 199.975 83.8428C199.966 83.8428 199.961 83.8473 199.961 83.8563V89.0993C199.961 89.3054 199.884 89.4847 199.729 89.637C199.574 89.7894 199.391 89.8656 199.182 89.8656H198.512Z" fill="#FF3C82"/>
<path d="M213.426 81.9473C213.217 81.9473 213.035 81.8711 212.88 81.7187C212.725 81.5664 212.647 81.3871 212.647 81.181V80.818C212.647 80.6119 212.725 80.4326 212.88 80.2802C213.035 80.1279 213.217 80.0517 213.426 80.0517H219.525C219.734 80.0517 219.917 80.1279 220.072 80.2802C220.226 80.4326 220.304 80.6119 220.304 80.818V81.181C220.304 81.3871 220.226 81.5664 220.072 81.7187C219.917 81.8711 219.734 81.9473 219.525 81.9473H217.774C217.702 81.9473 217.665 81.9831 217.665 82.0548V89.0993C217.665 89.3054 217.588 89.4847 217.433 89.637C217.278 89.7894 217.095 89.8656 216.886 89.8656H216.065C215.856 89.8656 215.673 89.7894 215.518 89.637C215.363 89.4847 215.286 89.3054 215.286 89.0993V82.0548C215.286 81.9831 215.25 81.9473 215.177 81.9473H213.426Z" fill="#FF3C82"/>
<path d="M229.794 81.8532V84.4343C229.794 84.515 229.831 84.5553 229.904 84.5553H230.56C231.198 84.5553 231.686 84.4254 232.023 84.1655C232.36 83.8966 232.529 83.5246 232.529 83.0496C232.529 82.1175 231.905 81.6515 230.656 81.6515C230.373 81.6515 230.127 81.6694 229.918 81.7053C229.835 81.7232 229.794 81.7725 229.794 81.8532ZM228.29 89.8656C228.081 89.8656 227.898 89.7894 227.744 89.637C227.589 89.4847 227.511 89.3054 227.511 89.0993V80.8852C227.511 80.6612 227.584 80.4685 227.73 80.3071C227.885 80.1458 228.072 80.0562 228.29 80.0383C229.102 79.9576 229.936 79.9173 230.793 79.9173C232.16 79.9173 233.176 80.1727 233.842 80.6836C234.516 81.1855 234.853 81.9024 234.853 82.8345C234.853 83.435 234.676 83.9772 234.32 84.4612C233.965 84.9362 233.5 85.2768 232.926 85.4829C232.916 85.4829 232.912 85.4874 232.912 85.4964C232.912 85.5143 232.921 85.5233 232.939 85.5233C233.386 85.7742 233.764 86.303 234.074 87.1096L234.853 89.1531C234.917 89.3233 234.894 89.4847 234.785 89.637C234.676 89.7894 234.53 89.8656 234.348 89.8656H233.513C233.277 89.8656 233.062 89.7983 232.871 89.6639C232.679 89.5295 232.547 89.3547 232.474 89.1396L231.791 87.2037C231.663 86.8273 231.508 86.5719 231.326 86.4374C231.144 86.303 230.861 86.2358 230.478 86.2358H229.904C229.831 86.2358 229.794 86.2761 229.794 86.3568V89.0993C229.794 89.3054 229.717 89.4847 229.562 89.637C229.407 89.7894 229.225 89.8656 229.015 89.8656H228.29Z" fill="#FF3C82"/>
<path d="M245.588 82.0414L244.59 85.8997C244.581 85.9266 244.586 85.9535 244.604 85.9804C244.631 85.9983 244.658 86.0072 244.686 86.0072H246.518C246.545 86.0072 246.568 85.9983 246.586 85.9804C246.614 85.9535 246.623 85.9266 246.614 85.8997L245.616 82.0414C245.616 82.0324 245.611 82.0279 245.602 82.0279C245.593 82.0279 245.588 82.0324 245.588 82.0414ZM241.938 89.8656C241.746 89.8656 241.591 89.7894 241.473 89.637C241.363 89.4847 241.34 89.3189 241.404 89.1396L244.166 80.7777C244.239 80.5626 244.367 80.3878 244.549 80.2534C244.74 80.1189 244.95 80.0517 245.178 80.0517H246.08C246.317 80.0517 246.532 80.1189 246.723 80.2534C246.914 80.3878 247.042 80.5626 247.106 80.7777L249.854 89.1396C249.918 89.3189 249.891 89.4847 249.772 89.637C249.663 89.7894 249.512 89.8656 249.321 89.8656H248.405C248.177 89.8656 247.972 89.7983 247.79 89.6639C247.607 89.5205 247.489 89.3413 247.434 89.1262L247.106 87.849C247.097 87.7773 247.051 87.7415 246.969 87.7415H244.235C244.162 87.7415 244.116 87.7773 244.098 87.849L243.77 89.1262C243.715 89.3413 243.597 89.5205 243.414 89.6639C243.232 89.7983 243.027 89.8656 242.799 89.8656H241.938Z" fill="#FF3C82"/>
<path d="M257.361 89.8656C257.152 89.8656 256.969 89.7894 256.815 89.637C256.66 89.4847 256.582 89.3054 256.582 89.0993V80.818C256.582 80.6119 256.66 80.4326 256.815 80.2802C256.969 80.1279 257.152 80.0517 257.361 80.0517H258.209C258.419 80.0517 258.597 80.1279 258.742 80.2802C258.897 80.4326 258.975 80.6119 258.975 80.818V87.8625C258.975 87.9342 259.016 87.97 259.098 87.97H262.42C262.63 87.97 262.812 88.0462 262.967 88.1986C263.122 88.3509 263.2 88.5302 263.2 88.7363V89.0993C263.2 89.3054 263.122 89.4847 262.967 89.637C262.812 89.7894 262.63 89.8656 262.42 89.8656H257.361Z" fill="#FF3C82"/>
<path d="M271.381 89.8656C271.171 89.8656 270.989 89.7894 270.834 89.637C270.688 89.4847 270.615 89.3054 270.615 89.0993V80.818C270.615 80.6119 270.688 80.4326 270.834 80.2802C270.989 80.1279 271.171 80.0517 271.381 80.0517H272.392C272.602 80.0517 272.78 80.1279 272.926 80.2802C273.081 80.4326 273.158 80.6119 273.158 80.818V89.0993C273.158 89.3054 273.081 89.4847 272.926 89.637C272.78 89.7894 272.602 89.8656 272.392 89.8656H271.381Z" fill="#FF3C82"/>
<path d="M281.542 89.8656C281.332 89.8656 281.15 89.7894 280.995 89.637C280.849 89.4847 280.776 89.3054 280.776 89.0993V88.7901C280.776 88.2703 280.918 87.8042 281.2 87.3919L284.96 81.9338V81.9204L284.974 81.9069C284.974 81.898 284.969 81.8935 284.96 81.8935H281.542C281.332 81.8935 281.15 81.8173 280.995 81.6649C280.849 81.5126 280.776 81.3333 280.776 81.1272V80.818C280.776 80.6119 280.849 80.4326 280.995 80.2802C281.15 80.1279 281.332 80.0517 281.542 80.0517H286.929C287.139 80.0517 287.316 80.1279 287.462 80.2802C287.617 80.4326 287.695 80.6119 287.695 80.818V81.1272C287.695 81.647 287.553 82.1131 287.271 82.5253L283.511 87.9835V87.9969L283.497 88.0103C283.497 88.0193 283.502 88.0238 283.511 88.0238H286.929C287.139 88.0238 287.316 88.1 287.462 88.2523C287.617 88.4047 287.695 88.5839 287.695 88.7901V89.0993C287.695 89.3054 287.617 89.4847 287.462 89.637C287.316 89.7894 287.139 89.8656 286.929 89.8656H281.542Z" fill="#FF3C82"/>
<path d="M298.656 82.0414L297.658 85.8997C297.649 85.9266 297.654 85.9535 297.672 85.9804C297.699 85.9983 297.726 86.0072 297.754 86.0072H299.586C299.613 86.0072 299.636 85.9983 299.654 85.9804C299.682 85.9535 299.691 85.9266 299.682 85.8997L298.684 82.0414C298.684 82.0324 298.679 82.0279 298.67 82.0279C298.661 82.0279 298.656 82.0324 298.656 82.0414ZM295.006 89.8656C294.814 89.8656 294.659 89.7894 294.541 89.637C294.431 89.4847 294.409 89.3189 294.472 89.1396L297.234 80.7777C297.307 80.5626 297.435 80.3878 297.617 80.2534C297.809 80.1189 298.018 80.0517 298.246 80.0517H299.148C299.385 80.0517 299.6 80.1189 299.791 80.2534C299.983 80.3878 300.11 80.5626 300.174 80.7777L302.922 89.1396C302.986 89.3189 302.959 89.4847 302.84 89.637C302.731 89.7894 302.58 89.8656 302.389 89.8656H301.473C301.245 89.8656 301.04 89.7983 300.858 89.6639C300.675 89.5205 300.557 89.3413 300.502 89.1262L300.174 87.849C300.165 87.7773 300.119 87.7415 300.037 87.7415H297.303C297.23 87.7415 297.184 87.7773 297.166 87.849L296.838 89.1262C296.783 89.3413 296.665 89.5205 296.482 89.6639C296.3 89.7983 296.095 89.8656 295.867 89.8656H295.006Z" fill="#FF3C82"/>
<path d="M311.92 81.9069V88.0103C311.92 88.091 311.961 88.1403 312.043 88.1582C312.225 88.1941 312.444 88.212 312.699 88.212C313.62 88.212 314.299 87.9476 314.736 87.4188C315.183 86.89 315.406 86.0252 315.406 84.8242C315.406 83.7487 315.183 82.96 314.736 82.4581C314.29 81.9562 313.611 81.7053 312.699 81.7053C312.444 81.7053 312.225 81.7232 312.043 81.759C311.961 81.777 311.92 81.8263 311.92 81.9069ZM310.416 89.8925C310.197 89.8745 310.015 89.7849 309.869 89.6236C309.723 89.4533 309.65 89.2561 309.65 89.0321V80.8852C309.65 80.6612 309.723 80.4685 309.869 80.3071C310.015 80.1368 310.197 80.0427 310.416 80.0248C311.127 79.9531 311.829 79.9173 312.521 79.9173C314.153 79.9173 315.411 80.343 316.295 81.1944C317.179 82.0458 317.621 83.2558 317.621 84.8242C317.621 86.5271 317.179 87.8176 316.295 88.696C315.411 89.5653 314.153 90 312.521 90C311.829 90 311.127 89.9641 310.416 89.8925Z" fill="#FF3C82"/>
<path d="M327.701 82.0414L326.702 85.8997C326.693 85.9266 326.698 85.9535 326.716 85.9804C326.743 85.9983 326.771 86.0072 326.798 86.0072H328.63C328.658 86.0072 328.68 85.9983 328.699 85.9804C328.726 85.9535 328.735 85.9266 328.726 85.8997L327.728 82.0414C327.728 82.0324 327.723 82.0279 327.714 82.0279C327.705 82.0279 327.701 82.0324 327.701 82.0414ZM324.05 89.8656C323.858 89.8656 323.703 89.7894 323.585 89.637C323.476 89.4847 323.453 89.3189 323.517 89.1396L326.279 80.7777C326.351 80.5626 326.479 80.3878 326.661 80.2534C326.853 80.1189 327.062 80.0517 327.29 80.0517H328.193C328.43 80.0517 328.644 80.1189 328.835 80.2534C329.027 80.3878 329.154 80.5626 329.218 80.7777L331.966 89.1396C332.03 89.3189 332.003 89.4847 331.884 89.637C331.775 89.7894 331.625 89.8656 331.433 89.8656H330.517C330.289 89.8656 330.084 89.7983 329.902 89.6639C329.72 89.5205 329.601 89.3413 329.546 89.1262L329.218 87.849C329.209 87.7773 329.164 87.7415 329.082 87.7415H326.347C326.274 87.7415 326.228 87.7773 326.21 87.849L325.882 89.1262C325.827 89.3413 325.709 89.5205 325.527 89.6639C325.344 89.7983 325.139 89.8656 324.911 89.8656H324.05Z" fill="#FF3C82"/>
<path fill-rule="evenodd" clip-rule="evenodd" d="M48.154 42.6464C52.6172 44.2043 54.6833 49.5294 51.3659 52.9398C45.9244 58.5338 38.3689 62 30.0166 62C13.4389 62 0 48.3447 0 31.5C0 14.6553 13.4389 1 30.0166 1C38.2992 1 45.7983 4.40866 51.2292 9.9207C54.5852 13.3268 52.521 18.6875 48.035 20.2533C44.8321 21.3712 41.3745 20.0523 38.5362 18.1749C36.0853 16.5536 33.1592 15.6116 30.0166 15.6116C21.3808 15.6116 14.3801 22.7251 14.3801 31.5C14.3801 40.2749 21.3808 47.3884 30.0166 47.3884C33.1942 47.3884 36.1505 46.4253 38.618 44.7707C41.4595 42.8653 44.9343 41.5226 48.154 42.6464Z" fill="#FFF100"/>
<path fill-rule="evenodd" clip-rule="evenodd" d="M140.474 50.0238C142.832 53.2195 142.212 57.8222 138.588 59.4256C134.848 61.081 130.711 62 126.361 62C109.593 62 96 48.3447 96 31.5C96 14.6553 109.593 1 126.361 1C130.77 1 134.96 1.94409 138.74 3.64202C142.385 5.27884 142.959 9.93118 140.534 13.1173C138.083 16.3384 133.44 16.7168 129.483 15.921C128.474 15.7181 127.43 15.6116 126.361 15.6116C117.626 15.6116 110.545 22.7251 110.545 31.5C110.545 40.2749 117.626 47.3884 126.361 47.3884C127.396 47.3884 128.407 47.2886 129.386 47.0981C133.373 46.3224 138.056 46.746 140.474 50.0238Z" fill="#FFF100"/>
<path fill-rule="evenodd" clip-rule="evenodd" d="M268.063 43.6464C272.61 45.2043 274.715 50.5294 271.335 53.9398C265.791 59.5338 258.093 63 249.583 63C232.692 63 219 49.3447 219 32.5C219 15.6553 232.692 2 249.583 2C258.022 2 265.662 5.40866 271.196 10.9207C274.615 14.3268 272.512 19.6875 267.941 21.2533C264.678 22.3712 261.155 21.0523 258.263 19.1749C255.766 17.5536 252.785 16.6116 249.583 16.6116C240.784 16.6116 233.651 23.7251 233.651 32.5C233.651 41.2749 240.784 48.3884 249.583 48.3884C252.821 48.3884 255.833 47.4253 258.347 45.7707C261.242 43.8653 264.782 42.5226 268.063 43.6464Z" fill="#01A6E8"/>
<path fill-rule="evenodd" clip-rule="evenodd" d="M303 61.0938C318.533 61.0938 331.125 48.2919 331.125 32.5C331.125 16.7081 318.533 3.90625 303 3.90625C287.467 3.90625 274.875 16.7081 274.875 32.5C274.875 48.2919 287.467 61.0938 303 61.0938ZM320.503 32.5C320.503 42.3277 312.667 50.2946 303 50.2946C293.333 50.2946 285.497 42.3277 285.497 32.5C285.497 22.6723 293.333 14.7054 303 14.7054C312.667 14.7054 320.503 22.6723 320.503 32.5ZM333 32.5C333 49.3447 319.569 63 303 63C286.431 63 273 49.3447 273 32.5C273 15.6553 286.431 2 303 2C319.569 2 333 15.6553 333 32.5ZM318.628 32.5C318.628 41.2749 311.631 48.3884 303 48.3884C294.369 48.3884 287.372 41.2749 287.372 32.5C287.372 23.7251 294.369 16.6116 303 16.6116C311.631 16.6116 318.628 23.7251 318.628 32.5Z" fill="#FF3C82"/>
<path d="M57 8.05313C57 4.15779 60.134 1 64 1C67.866 1 71 4.15779 71 8.05312V54.9469C71 58.8422 67.866 62 64 62C60.134 62 57 58.8422 57 54.9469V8.05313Z" fill="#FFF100"/>
<path d="M109.481 38C105.902 38 103 35.0899 103 31.5C103 27.9101 105.902 25 109.481 25H126.519C130.098 25 133 27.9101 133 31.5C133 35.0899 130.098 38 126.519 38H109.481Z" fill="#FFF100"/>
<path d="M160.513 12.2985C159.082 8.36764 161.109 4.02124 165.039 2.59053C168.97 1.15982 173.317 3.18658 174.747 7.11742L190.291 49.8219C191.721 53.7528 189.694 58.0992 185.764 59.5299C181.833 60.9606 177.486 58.9338 176.056 55.003L160.513 12.2985Z" fill="#FFF100"/>
<path d="M172.87 12.2985C174.301 8.36764 172.274 4.02124 168.343 2.59053C164.412 1.15982 160.066 3.18658 158.635 7.11742L143.092 49.8219C141.661 53.7528 143.688 58.0992 147.619 59.5299C151.55 60.9606 155.896 58.9338 157.327 55.003L172.87 12.2985Z" fill="#FFF100"/>
<path d="M69.7773 35.9965C67.8426 32.6456 68.9907 28.3607 72.3417 26.426C75.6927 24.4913 79.9776 25.6394 81.9123 28.9904L94.5852 50.9405C96.5199 54.2915 95.3717 58.5764 92.0208 60.5111C88.6698 62.4458 84.3849 61.2976 82.4502 57.9467L69.7773 35.9965Z" fill="#FFF100"/>
<path fill-rule="evenodd" clip-rule="evenodd" d="M93 19.5C93 29.7173 84.5366 38 74.0966 38C73.9677 38 73.8391 37.9987 73.7108 37.9962L62 24.3844C62.1273 24.3939 73.9668 24.4082 74.0966 24.4082C76.8664 24.4082 79.1118 22.2107 79.1118 19.5C79.1118 16.7893 76.8664 14.5919 74.0966 14.5919C73.8358 14.5919 62.8989 14.6489 62.6489 14.6864C62.6489 11.3826 62.6489 7.04081 62.6489 1L74.0966 1.00005C84.5366 1.00005 93 9.28277 93 19.5Z" fill="#FFF100"/>
</svg>
