<svg width="390" height="441" viewBox="0 0 390 441" fill="none" xmlns="http://www.w3.org/2000/svg">
<path fill-rule="evenodd" clip-rule="evenodd" d="M353.736 301.083C386.522 312.346 401.699 350.843 377.33 375.499C337.357 415.941 281.855 441 220.5 441C98.7212 441 0 342.279 0 220.5C0 98.7212 98.7212 0 220.5 0C281.343 0 336.431 24.6429 376.326 64.4923C400.979 89.1164 385.816 127.872 352.862 139.192C329.333 147.274 303.934 137.739 283.084 124.166C265.08 112.445 243.585 105.635 220.5 105.635C157.062 105.635 105.635 157.062 105.635 220.5C105.635 283.938 157.062 335.365 220.5 335.365C243.843 335.365 265.559 328.402 283.685 316.44C304.559 302.666 330.084 292.958 353.736 301.083Z" fill="#FFF100"/>
<path fill-rule="evenodd" clip-rule="evenodd" d="M325.552 293.758C354.249 303.615 366.78 337.785 344.196 358.048C311.613 387.283 268.545 405.067 221.324 405.067C119.674 405.067 37.2699 322.663 37.2699 221.013C37.2699 119.363 119.674 36.9589 221.324 36.9589C267.983 36.9589 310.586 54.3209 343.027 82.9369C365.933 103.143 353.426 137.605 324.538 147.528C305.896 153.932 285.722 147.298 268.579 137.568C254.632 129.653 238.506 125.133 221.324 125.133C168.371 125.133 125.445 168.06 125.445 221.013C125.445 273.965 168.371 316.892 221.324 316.892C238.791 316.892 255.168 312.221 269.273 304.059C286.459 294.115 306.774 287.307 325.552 293.758Z" fill="#01A6E8"/>
<path fill-rule="evenodd" clip-rule="evenodd" d="M215.09 347.832C285.13 347.832 341.909 291.053 341.909 221.013C341.909 150.972 285.13 94.1933 215.09 94.1933C145.049 94.1933 88.2701 150.972 88.2701 221.013C88.2701 291.053 145.049 347.832 215.09 347.832ZM281.505 220.864C281.505 257.615 251.889 287.529 215.205 287.529C178.52 287.529 148.904 257.615 148.904 220.864C148.904 184.114 178.52 154.2 215.205 154.2C251.889 154.2 281.505 184.114 281.505 220.864ZM352.838 221.013C352.838 297.089 291.166 358.761 215.09 358.761C139.013 358.761 77.3414 297.089 77.3414 221.013C77.3414 144.937 139.013 83.2646 215.09 83.2646C291.166 83.2646 352.838 144.937 352.838 221.013ZM270.576 220.864C270.576 251.646 245.786 276.6 215.205 276.6C184.624 276.6 159.833 251.646 159.833 220.864C159.833 190.082 184.624 165.128 215.205 165.128C245.786 165.128 270.576 190.082 270.576 220.864Z" fill="#FF3C82"/>
</svg>
