<svg width="81" height="81" viewBox="0 0 81 81" fill="none" xmlns="http://www.w3.org/2000/svg">
<ellipse cx="40.5" cy="40.4849" rx="40.5" ry="39.8453" fill="white"/>
<ellipse cx="40.5" cy="40.4849" rx="40.5" ry="39.8453" fill="white"/>
<ellipse cx="40.5" cy="40.4849" rx="40.5" ry="39.8453" fill="white"/>
<path d="M32.7238 54.9997C32.7238 55.1981 32.4919 55.3567 32.1996 55.3567C31.8669 55.3865 31.6351 55.2278 31.6351 54.9997C31.6351 54.8014 31.8669 54.6427 32.1593 54.6427C32.4617 54.6129 32.7238 54.7716 32.7238 54.9997ZM29.5887 54.5534C29.5181 54.7518 29.7198 54.9799 30.0222 55.0394C30.2843 55.1385 30.5867 55.0394 30.6472 54.841C30.7077 54.6427 30.5161 54.4146 30.2137 54.3253C29.9516 54.2559 29.6593 54.3551 29.5887 54.5534ZM34.0444 54.3848C33.752 54.4542 33.5504 54.6427 33.5806 54.8708C33.6109 55.0691 33.873 55.1981 34.1754 55.1286C34.4677 55.0592 34.6694 54.8708 34.6391 54.6724C34.6089 54.484 34.3367 54.3551 34.0444 54.3848ZM40.6774 16.3809C26.6956 16.3809 16 26.824 16 40.5796C16 51.5782 23.0363 60.9899 33.0867 64.3023C34.377 64.5304 34.8306 63.747 34.8306 63.1023C34.8306 62.4874 34.8004 59.0956 34.8004 57.013C34.8004 57.013 27.744 58.5006 26.2621 54.0575C26.2621 54.0575 25.1129 51.1715 23.4597 50.4277C23.4597 50.4277 21.1512 48.8707 23.621 48.9004C23.621 48.9004 26.131 49.0988 27.5121 51.4591C29.7198 55.2873 33.4194 54.1865 34.8609 53.5319C35.0927 51.9451 35.748 50.8443 36.4738 50.1897C30.8387 49.5748 25.1532 48.7715 25.1532 39.2308C25.1532 36.5035 25.9194 35.1349 27.5323 33.3894C27.2702 32.7448 26.4133 30.0869 27.7944 26.6554C29.9012 26.0108 34.75 29.3331 34.75 29.3331C36.7661 28.7778 38.9335 28.4902 41.0806 28.4902C43.2278 28.4902 45.3952 28.7778 47.4113 29.3331C47.4113 29.3331 52.2601 26.0009 54.3669 26.6554C55.748 30.0968 54.8911 32.7448 54.629 33.3894C56.2419 35.1448 57.2298 36.5134 57.2298 39.2308C57.2298 48.8013 51.2923 49.5649 45.6573 50.1897C46.5847 50.9732 47.371 52.4608 47.371 54.7914C47.371 58.1336 47.3407 62.2693 47.3407 63.0825C47.3407 63.7271 47.8044 64.5106 49.0847 64.2825C59.1653 60.9899 66 51.5782 66 40.5796C66 26.824 54.6593 16.3809 40.6774 16.3809ZM25.7984 50.5864C25.6673 50.6856 25.6976 50.9137 25.869 51.1021C26.0302 51.2608 26.2621 51.3302 26.3931 51.2013C26.5242 51.1021 26.494 50.874 26.3226 50.6856C26.1613 50.5269 25.9294 50.4575 25.7984 50.5864ZM24.7097 49.7831C24.6391 49.912 24.7399 50.0707 24.9415 50.1699C25.1028 50.269 25.3044 50.2393 25.375 50.1004C25.4456 49.9715 25.3448 49.8128 25.1431 49.7137C24.9415 49.6542 24.7802 49.6839 24.7097 49.7831ZM27.9758 53.3137C27.8145 53.4427 27.875 53.7402 28.1069 53.9286C28.3387 54.1567 28.631 54.1865 28.7621 54.0278C28.8931 53.8989 28.8327 53.6013 28.631 53.4129C28.4093 53.1848 28.1069 53.155 27.9758 53.3137ZM26.8266 51.8559C26.6653 51.955 26.6653 52.2129 26.8266 52.441C26.9879 52.6691 27.2601 52.7683 27.3911 52.6691C27.5524 52.5402 27.5524 52.2823 27.3911 52.0542C27.25 51.8261 26.9879 51.7269 26.8266 51.8559Z" fill="#9203F1"/>
</svg>
