<svg width="31" height="31" viewBox="0 0 31 31" fill="none" xmlns="http://www.w3.org/2000/svg">
<path d="M18.0833 8.28058V0.0629883H1.9375C0.863802 0.0629883 0 0.709519 0 1.51315V29.5496C0 30.3533 0.863802 30.9998 1.9375 30.9998H29.0625C30.1362 30.9998 31 30.3533 31 29.5496V9.73074H20.0208C18.9552 9.73074 18.0833 9.07817 18.0833 8.28058ZM24.2551 21.0517L16.4712 26.8342C15.9343 27.2336 15.0673 27.2336 14.5304 26.8342L6.74654 21.0517C5.92714 20.4432 6.50193 19.3985 7.65474 19.3985H12.9167V14.5646C12.9167 14.0305 13.4947 13.5978 14.2083 13.5978H16.7917C17.5053 13.5978 18.0833 14.0305 18.0833 14.5646V19.3985H23.3453C24.4981 19.3985 25.0729 20.4432 24.2551 21.0517ZM30.4349 6.40745L22.5315 0.485953C22.1682 0.214047 21.6758 0.0629883 21.1591 0.0629883H20.6667V7.79719H31V7.42861C31 7.04794 30.7982 6.67936 30.4349 6.40745Z" fill="#9203F1"/>
</svg>
