<svg width="81" height="81" viewBox="0 0 81 81" fill="none" xmlns="http://www.w3.org/2000/svg">
<ellipse cx="40.5" cy="40.4849" rx="40.5" ry="39.8453" fill="white"/>
<ellipse cx="40.5" cy="40.4849" rx="40.5" ry="39.8453" fill="white"/>
<ellipse cx="40.5" cy="40.4849" rx="40.5" ry="39.8453" fill="white"/>
<path d="M61.8575 24.0721L54.3122 59.0803C53.743 61.5511 52.2585 62.1661 50.1489 61.0021L38.6523 52.6673L33.105 57.9163C32.4911 58.5203 31.9776 59.0254 30.7945 59.0254L31.6205 47.5061L52.9282 28.5634C53.8546 27.7508 52.7273 27.3006 51.4883 28.1132L25.1467 44.4313L13.8064 40.9393C11.3396 40.1816 11.295 38.5124 14.3198 37.3484L58.6764 20.5361C60.7302 19.7784 62.5272 20.9863 61.8575 24.0721Z" fill="#9203F1"/>
</svg>
