<svg width="81" height="81" viewBox="0 0 81 81" fill="none" xmlns="http://www.w3.org/2000/svg">
<ellipse cx="40.5" cy="40.4849" rx="40.5" ry="39.8453" fill="white"/>
<ellipse cx="40.5" cy="40.4849" rx="40.5" ry="39.8453" fill="white"/>
<ellipse cx="40.5" cy="40.4849" rx="40.5" ry="39.8453" fill="white"/>
<path d="M48.025 40.7308C48.025 42.2311 46.9 43.4609 45.475 43.4609C44.075 43.4609 42.925 42.2311 42.925 40.7308C42.925 39.2304 44.05 38.0007 45.475 38.0007C46.9 38.0007 48.025 39.2304 48.025 40.7308ZM36.35 38.0007C34.925 38.0007 33.8 39.2304 33.8 40.7308C33.8 42.2311 34.95 43.4609 36.35 43.4609C37.775 43.4609 38.9 42.2311 38.9 40.7308C38.925 39.2304 37.775 38.0007 36.35 38.0007ZM62.75 22.4315V66.5564C56.4518 61.0806 58.466 62.8932 51.15 56.2016L52.475 60.7518H24.125C21.3 60.7518 19 58.489 19 55.6851V22.4315C19 19.6276 21.3 17.3647 24.125 17.3647H57.625C60.45 17.3647 62.75 19.6276 62.75 22.4315ZM55.625 45.7483C55.625 37.8285 52.025 31.409 52.025 31.409C48.425 28.7526 45 28.8264 45 28.8264L44.65 29.2199C48.9 30.4989 50.875 32.3436 50.875 32.3436C44.9364 29.1414 37.9605 29.1409 32.2 31.6303C31.275 32.0485 30.725 32.3436 30.725 32.3436C30.725 32.3436 32.8 30.4005 37.3 29.1216L37.05 28.8264C37.05 28.8264 33.625 28.7526 30.025 31.409C30.025 31.409 26.425 37.8285 26.425 45.7483C26.425 45.7483 28.525 49.3147 34.05 49.4869C34.05 49.4869 34.975 48.3801 35.725 47.4455C32.55 46.5108 31.35 44.5432 31.35 44.5432C31.7178 44.7964 32.3242 45.1247 32.375 45.158C36.5947 47.4829 42.5887 48.2446 47.975 46.0189C48.85 45.6992 49.825 45.2318 50.85 44.5677C50.85 44.5677 49.6 46.5846 46.325 47.4947C47.075 48.4293 47.975 49.4869 47.975 49.4869C53.5 49.3147 55.625 45.7483 55.625 45.7483Z" fill="#9203F1"/>
</svg>
