<svg width="81" height="81" viewBox="0 0 81 81" fill="none" xmlns="http://www.w3.org/2000/svg">
<ellipse cx="40.5" cy="40.4849" rx="40.5" ry="39.8453" fill="white"/>
<ellipse cx="40.5" cy="40.4849" rx="40.5" ry="39.8453" fill="white"/>
<ellipse cx="40.5" cy="40.4849" rx="40.5" ry="39.8453" fill="white"/>
<path d="M62.4286 16.3809H19.5603C17.596 16.3809 16 17.973 16 19.9275V62.0259C16 63.9804 17.596 65.5725 19.5603 65.5725H62.4286C64.3929 65.5725 66 63.9804 66 62.0259V19.9275C66 17.973 64.3929 16.3809 62.4286 16.3809ZM31.1116 58.5452H23.7009V35.0693H31.1228V58.5452H31.1116ZM27.4062 31.8631C25.029 31.8631 23.1094 29.9635 23.1094 27.6357C23.1094 25.3078 25.029 23.4082 27.4062 23.4082C29.7723 23.4082 31.7031 25.3078 31.7031 27.6357C31.7031 29.9745 29.7835 31.8631 27.4062 31.8631ZM58.8906 58.5452H51.4799V47.1257C51.4799 44.4025 51.4241 40.8998 47.6295 40.8998C43.7679 40.8998 43.1763 43.8645 43.1763 46.928V58.5452H35.7656V35.0693H42.875V38.2755H42.9754C43.9688 36.4309 46.3906 34.4874 49.9955 34.4874C57.4955 34.4874 58.8906 39.3516 58.8906 45.6763V58.5452Z" fill="#9203F1"/>
</svg>
