<svg width="23" height="21" viewBox="0 0 23 21" fill="none" xmlns="http://www.w3.org/2000/svg">
<path d="M20.4905 8.64891H13.5543V2.11326C13.5543 1.31128 12.8641 0.660889 12.013 0.660889H10.4716C9.62046 0.660889 8.93021 1.31128 8.93021 2.11326V8.64891H1.99401C1.14288 8.64891 0.452637 9.2993 0.452637 10.1013V11.5536C0.452637 12.3556 1.14288 13.006 1.99401 13.006H8.93021V19.5417C8.93021 20.3436 9.62046 20.994 10.4716 20.994H12.013C12.8641 20.994 13.5543 20.3436 13.5543 19.5417V13.006H20.4905C21.3417 13.006 22.0319 12.3556 22.0319 11.5536V10.1013C22.0319 9.2993 21.3417 8.64891 20.4905 8.64891Z" fill="black"/>
</svg>
